<?xml version="1.0" encoding="utf-8"?>
<!-- Generator: Adobe Illustrator 19.2.1, SVG Export Plug-In . SVG Version: 6.00 Build 0)  -->
<svg version="1.1" id="Calque_1" xmlns="http://www.w3.org/2000/svg" xmlns:xlink="http://www.w3.org/1999/xlink" x="0px" y="0px"
	 viewBox="0 0 529.5 551.4" style="enable-background:new 0 0 529.5 551.4;" xml:space="preserve">
<style type="text/css">
	.st0{display:none;fill:url(#TripActions-Gradient_1_);}
	.st1{fill:none;}
	.st2{fill:url(#ic-plane-trajectory_1_);fill-opacity:0.8;}
	.st3{fill:#E20C1A;}
	.st4{fill:url(#World-mask_2_);}
	.st5{clip-path:url(#SVGID_2_);}
	.st6{fill:url(#ic-world-flat-map_2_);}
	.st7{fill:url(#ic-world-flat-map_3_);}
</style>
<g id="Globe-Spinner">
	
		<linearGradient id="TripActions-Gradient_1_" gradientUnits="userSpaceOnUse" x1="-304.7439" y1="-25.5202" x2="-304.7439" y2="-24.5048" gradientTransform="matrix(1600 0 0 600 487861.1875 15318.8125)">
		<stop  offset="0" style="stop-color:#FFA077"/>
		<stop  offset="1" style="stop-color:#FF8376"/>
	</linearGradient>
	<path id="TripActions-Gradient" class="st0" d="M-529.1,1.6h1600v600h-1600V1.6z"/>
	<g id="plane" transform="translate(562 64)">
		<path id="Radial" class="st1" d="M-291.1,477.6c131.4,0,238-106.6,238-238s-106.6-238-238-238s-238,106.6-238,238
			S-422.5,477.6-291.1,477.6z"/>
		<linearGradient id="ic-plane-trajectory_1_" gradientUnits="userSpaceOnUse" x1="-495.1" y1="351" x2="-123.1" y2="351">
			<stop  offset="0" style="stop-color:#E20C1A"/>
			<stop  offset="1" style="stop-color:#FFFFFF"/>
		</linearGradient>
		<path id="ic-plane-trajectory" class="st2" d="M-495.1,256.2c8.1,106.1,96.7,189.7,204.9,189.7c68.9,0,129.8-33.9,167.1-85.9
			c-37.6,48-96.1,78.8-161.8,78.8c-105.8,0-192.9-79.9-204.3-182.7L-495.1,256.2L-495.1,256.2z		">
<animateTransform  accumulate="none" additive="replace" attributeName="transform" attributeType="XML" calcMode="linear" dur="2s" fill="remove" from="0 -289 242" repeatCount="indefinite" restart="always" to="360 -289 242" type="rotate">
				</animateTransform>
		</path>
		<path id="ic-plane" class="st3" d="M-488.9,185.7l0.9,25.6l32.2,19.3l0.3,8l-16.8-5l0.1,4c0,1.3-1.1,2.5-2.4,2.6
			c-1.3,0-2.5-1.1-2.6-2.4l-0.2-5.6l-10-3l0.8,22.7l7.6,6.2l0.2,4.3l-12.7-3.9l-12.3,4.6l-0.2-4.3l7.1-6.7l-0.8-22.6l-9.4,3.6
			l0.2,5.7c0,1.3-1.1,2.5-2.4,2.6c-1.3,0-2.5-1.1-2.6-2.4l-0.1-4.1l-16.7,6.3l-0.3-8l30.6-21.5l-0.9-25.6c1.6-4.7,3.3-7.1,5-7.1
			C-492.7,178.9-490.9,181.2-488.9,185.7z		">
<animateTransform  accumulate="none" additive="replace" attributeName="transform" attributeType="XML" calcMode="linear" dur="2s" fill="remove" from="0 -289 242" repeatCount="indefinite" restart="always" to="360 -289 242" type="rotate">
				</animateTransform>
		</path>
	</g>
	<g id="Globe" transform="translate(644.5535 146.55351)">
		<g>
			
				<radialGradient id="World-mask_2_" cx="-1594.2438" cy="-24.637" r="0.5234" gradientTransform="matrix(258.6006 174.2214 -166.6363 247.3419 407802.25 283986.9063)" gradientUnits="userSpaceOnUse">
				<stop  offset="0" style="stop-color:#FAFAFA"/>
				<stop  offset="1" style="stop-color:#F9F9F9"/>
			</radialGradient>
			<path id="World-mask_1_" class="st4" d="M-373.2,313.4c86.1,0,155.9-69.8,155.9-155.9S-287.1,1.6-373.2,1.6
				s-155.9,69.8-155.9,155.9S-459.3,313.4-373.2,313.4z"/>
		</g>
		<g>
			<g>
				<defs>
					<circle id="SVGID_1_" cx="-373.2" cy="157.5" r="155.9"/>
				</defs>
				<clipPath id="SVGID_2_">
					<use xlink:href="#SVGID_1_"  style="overflow:visible;"/>
				</clipPath>
				<g class="st5">
					
						<linearGradient id="ic-world-flat-map_2_" gradientUnits="userSpaceOnUse" x1="-1594.1211" y1="-25.4808" x2="-1594.1211" y2="-24.4654" gradientTransform="matrix(546.5533 0 0 274.9784 871055.1875 7030.5845)">
						<stop  offset="0" style="stop-color:#FFA077"/>
						<stop  offset="1" style="stop-color:#D32027"/>
					</linearGradient>
					<path id="ic-world-flat-map" class="st6" d="M-326.6,31c-2.8-0.7-5-1.3-4.9-2.3c0-1.2,3.5-2.3,16.7-4.3
						c12.3-1.8,18.6-2.7,27.6-2.8l0,0c6.3,0,20.2-0.1,20.8,3.1c0.2,0.9-0.8,1.7-2.7,3.1c-1.7,1.3-4.1,3.1-7,6
						c-4.5,4.5-3.6,5-6.5,7.5c-7,6.1-11.7,2.6-19.2,8.1c-2.7,2-4.4,4.1-5.7,5.8c-1.7,2.1-2.8,3.6-4.9,3.5c-2.7-0.2-5.3-3-6.2-5.8
						c-1-3.3,0.4-6,1.8-8.5c1.2-2.3,2.4-4.5,1.6-6.8C-316.5,33.6-322.3,32.1-326.6,31z M-157.9,39.1c0.4-1,2.4-0.8,5-0.6
						c2,0.2,4.5,0.3,7,0.1c5.7-0.6,4.9-3,13.6-5.9c1.5-0.5,11.1-3.5,19.5-1.8c5.3,1.1,5.8,2.6,11.9,4.9c5.9,2.2,9.6,2.2,26.1,3.1
						c12.1,0.7,18.1,1,22.6,1.3c16.5,1.3,16.7,2.1,26.1,2.2c2.4,0,4.8,0.1,7.2,0.2c3,0.1,6.1,0.2,9.1,0.2c1.3,0,2.4,0,3.5,0
						c6.6-0.1,9.8-0.1,11.8,2.2s2.4,6.5,0.7,9.3C3,59.6-6.6,57.7-7.2,60.7c-0.2,0.9,0.7,1.7,1.8,2.7c1.4,1.3,3.3,3,4.4,6.1
						c0.7,2,1.3,5.2,0.1,6c-1.4,0.9-4.8-1.9-7.5-4.2l0,0c-3.3-2.8-4.9-4.2-5.4-6.5c-0.5-2.1,0.3-3.7,0.9-5c0.5-1,0.9-1.8,0.5-2.6
						c-2.3-4.2-25.9,1.4-26,7.4c0,0.9,0.5,1.4,2,2.8c1.1,1,2.7,2.5,5,4.9c4.1,4.4,6.2,6.6,6.6,8.4c0.6,2.4-0.2,3.9-1.3,5.9
						c-1.1,2.1-2.4,4.7-2.7,9.1c-0.1,1.9-0.3,4.5,0.7,7.7c0.7,2.1,1.5,3.5,2.2,4.6c0.6,1,0.9,1.5,0.7,1.9c-0.8,0.9-5.6-0.8-8.9-4.4
						c-2.4-2.7-2.1-4.5-4-5.3c-3.4-1.4-8.8,2.5-8.4,4.3c0.3,1.3,3.4,0.6,5.5,3.2c1.1,1.4,0.9,2.3,1.6,4.9c1.1,3.8,2.8,4.4,3.5,7.1
						c0.5,1.8,2.2,8-0.4,11.9c-3.6,5.3-12.7,0.6-17.7,6.6c-0.5,0.6-2.4,2.9-2,5.5c0.4,2.8,3,3.1,5.1,6.9c0.4,0.7,3,5.4,1.1,9.4
						c-1.2,2.3-3.9,4.3-5.9,3.8c-0.6-0.1-1.4-1-2.9-2.8c-1.6-1.7-2-2.4-3.2-3.6l0,0c-1-1-2.7-2.6-3.2-2.3c-0.2,0.1-0.1,0.4,0,0.9
						c0.1,0.6,0.4,1.5,0.2,2.6c-0.2,1.5-0.8,1.7-1,2.9c-0.5,2.5,1.5,5,2.2,5.9l0,0c1.8,2.2,2.7,1.6,4.1,3.7c1,1.6,0.7,2.2,2,4.4
						c0.7,1.2,1.4,2,1.8,2.4c0.3,0.4,0.5,0.6,0.4,0.7c-0.4,0.5-5.3-0.9-7.2-4.5c-0.7-1.3-0.5-2.1-1.7-4.3c-0.8-1.5-1.2-1.8-1.8-2.9
						c-1-1.9-1.3-3.7-1.5-5.5c-1-9.2-0.2-11-1.8-12.5c-1-1-1.9-0.9-3.1-0.9c-1.1,0-2.4,0.1-4-0.9c-4.9-2.8-3.7-8.5-7.4-9.7
						c-2.6-0.9-5.3,1.1-9.4,4.1c-4.2,3-7.3,5.3-8.3,9.1c-0.5,1.9-0.3,3.5,0,5c0.3,1.9,0.6,3.7-0.6,6.2c-0.6,1.4-1.6,3.4-2.9,3.5
						c0,0-3.2,0.3-12.7-26.8c0.4,0.8-0.8-1.7-1.3-2.4c-0.9-1.1-2.4-1.1-4-1.1c-0.6,0-1.3,0-1.9-0.1c-3.7-0.4-3.6-2.3-8.4-4.3
						c-3.1-1.3-3.3-0.5-11.7-2.2c-4.3-0.9-6.4-1.3-7.8-2.1c-2.9-1.6-4.6-3.9-5.8-5.4c-0.9-1.2-1.5-2-2.2-1.8
						c-1.1,0.4-1.1,3.5-0.6,5.6c0.6,2.2,2.3,5.6,5.2,6.2c1.4,0.3,2.6-0.3,3.7-0.8c1.2-0.6,2.2-1.1,3.6-0.5c1.1,0.4,0.9,1,2.8,2.8
						c2.8,2.6,4.6,2.5,5,4c0.5,1.7-1.5,3.7-2.4,4.6c-8.3,8.1-18.7,18.3-23,15.3c-0.9-0.6-1.5-1.9-2.7-4.4s-1.6-4.5-1.8-5.2
						c-1.3-5.3-5-6.8-9.4-14c-2-3.2-3.3-6.3-4.3-8.5c-0.9-1.9-1.4-3.2-1.7-3.1c-0.2,0.1-0.2,0.7-0.2,1.4c0,0.8,0.1,1.7-0.3,1.8
						c-0.7,0.3-2.2-2.5-2.8-3.6c-1-1.8-0.8-2.1-0.7-2.2s0.3-0.1,0.5,0c0.1,0,0.1,0,0.2,0c1.2,0.2,2.4-1.2,2.9-1.7
						c2-2.3,3.5-9,1.1-10.5c-0.6-0.4-1.1-0.2-2,0.1c-0.6,0.2-1.5,0.5-2.8,0.7c-2,0.3-6.6,1.1-9.3-1.4c-1.7-1.6-2.6-4.6-1.5-6.2
						c0.4-0.7,1.1-0.9,3.1-1.5c4-1.2,6-1.8,7-1.9c1.9-0.1,3.1,0.4,4.2,0.8c0.7,0.3,1.4,0.5,2.2,0.7c0.6,0.1,1.3,0.2,2.3,0.1
						c0.9,0,3.9-0.2,4.4-1.5c0.2-0.5-0.1-1-0.4-1.5c-0.2-0.3-0.4-0.6-0.2-0.8c0.8-1.1,10,2.1,13.6,4.3l0,0c0.2,0.1,0.8,0.5,1.1,0.3
						c0.4-0.3,0.2-1.3-0.1-2.6c-0.2-0.7-0.4-1.4-0.5-2.2c-0.4-2.2-0.1-3.5,0.3-4.8c0.3-1.2,0.6-2.3,0.3-4.3
						c-0.3-1.9-0.9-3.2-1.4-4.2s-0.8-1.6-0.4-2.2c0.6-1,2.1-0.7,3.8-0.5c1.8,0.3,3.9,0.5,5.1-0.6c3.1-2.9-1.3-12.5-1.5-13.1
						c-1.4-3-3.1-5.2-4.4-7c-1.7-2.2-2.8-3.7-2.1-5.1c0.9-1.9,3.8-1.3,5.5-4c0.3-0.5,0.4-1.2,1-2.2c0.8-1.5,1.2-1.6,1.5-2.3
						c0.4-1.1-0.1-2-0.5-2.8C-157.9,40.1-158.2,39.6-157.9,39.1z M-394.9,163.5c-0.9-0.2-3.1-0.9-4.1-2.7c-0.5-0.8-0.4-1.4-0.3-2.6
						c0.1-0.8,0.2-1.8,0.1-3.3c-0.1-2.9-0.1-4.3-0.9-5c-1.1-1-2.7-0.5-4.3-0.1c-1.3,0.4-2.5,0.7-3.1,0.1c-1.1-1.1,0.5-4.4,1.9-7.2
						c1.1-2.2,2-4.1,1.5-4.5c-0.3-0.3-0.9,0.2-1.9,0.9c-1.4,1-3.4,2.4-6.2,3.1l0,0c-0.6,0.2-6.1,1.5-8.7-0.9
						c-3.8-3.5-1.8-15.2,5.8-20.5c6.8-4.8,17.1-3.5,20.9,1.2c1,1.2,1.6,2.7,2,3.8c0.4,1,0.6,1.6,1,1.6c0.4-0.1,0.4-0.9,0.4-2.2
						c0-2.2,0-5.8,2-8.7c2.7-3.9,6-2.3,9.7-6.5c3.4-3.8,1.8-6.3,5.3-10c2.8-3,4.8-2.3,8.8-4.7c6.7-4,5.6-8.3,11-12.8
						c8.2-6.8,16.8-2,19.7-7.3c2.8-5-2-14.6-7.1-15.6c-1.4-0.3-2.5,0.2-3.6,0.6c-1.3,0.5-2.6,1-4.3,0.6c-4-1.1-4.2-5.5-6.8-5.6
						c-1.9-0.1-3.3,2.1-9.1,11.8c-4.2,6.9-4.8,7.8-6.2,8.3c-5.5,1.6-15.2-7.2-13.9-12.7c0.7-3,4.3-3.1,14.7-8.6
						c8.4-4.3,15.3-9,14.7-10.3c-0.2-0.4-1-0.3-2.2-0.2c-1.9,0.3-4.9,0.6-7.6-1c-2.9-1.8-2.8-4.3-5-4.7c-1.9-0.4-3.4,1.1-5.2,2.8
						c-0.9,0.8-1.8,1.7-2.8,2.5c-4,2.9-8,2.2-15.2,1.1c-2.7-0.4-5.8-0.9-9.6-1.3c-7.4-0.8-10.9-0.6-14-0.4
						c-3.2,0.2-6.1,0.4-12.6-0.5c-5.1-0.8-8.4-1.6-11-2.3c-3.7-1-6.1-1.6-10.8-1.2c-3.4,0.3-11.5,1.1-18.6,6.5
						c-4.2,3.2-4.1,5.1-9.4,8.6c-4.8,3.1-7.5,3.4-9.1,6.5c-1.6,3-1.8,7.7,0.3,9.1c1.7,1.2,4.1-0.6,7.3-3c4.2-3.1,9.9-7.3,17.5-7.6
						c1.2,0,11.8-0.3,16.8,7.1c4.2,6.2,1.9,13.8,1.8,14.2c-2.3,7.1-7.8,6.8-10.6,14.2c-2.3,6-0.8,11.8,0,15
						c1.5,5.8,3.7,7.2,10.6,17.7c9.5,14.4,8,15.7,12.4,18.6c5.8,3.8,8.7,1.5,18.6,7.1c3.4,1.9,6,3.4,9,6.2c0,0,3.9,4.6,7,6.7
						c0.5,0.4,1,0.6,1.7,1c1.7,0.9,2.2,0.8,2.4,0.8c0.7-0.2,0.6-0.9,1.3-1.1c0.5-0.2,0.9,0.1,1.4,0.3c0.4,0.2,0.8,0.4,1.2,0.3
						c0.7-0.2,1.3-1.5,0.9-2.1c-0.3-0.5-0.9-0.4-1.9-0.4C-392.1,163.8-393.4,163.9-394.9,163.5z M-174.4,44.1
						c3.4-0.5,4.4-1.1,7.7-1.5c4.9-0.6,5.6,0.2,5.8,0.5c0.7,1,0.2,2.6-0.4,3.6c-0.9,1.3-1.9,1.2-3.8,2.8c-1,0.8-1.9,1.5-2.3,2.4
						c-0.7,1.6,0.5,3.3,2.3,5.7c1.2,1.7,2.7,3.8,4,6.4c0.9,1.8,4.2,8.6,1.9,11.1c-1.1,1.2-3,1-4.8,0.8s-3.4-0.4-4.2,0.7
						c-0.5,0.7-0.3,1.4,0.1,2.6c0.4,1.2,1,3,1.1,5.8c0.1,1.2,0,2-0.1,2.7c-0.1,0.9-0.2,1.7,0.1,3.3c0.1,0.8,0.3,1.5,0.4,2
						c0.3,1.2,0.4,2,0,2.3c-0.3,0.2-0.7,0.1-1.7-0.4c-0.4-0.2-0.8-0.4-1.4-0.6c-0.6-0.2-2.9-1.2-5.5-1.8c-0.8-0.2-1.7-0.4-2.8-0.5
						c-1-0.1-1.6-0.1-2.1,0c-0.4,0-0.8,0-1.4,0c-1.4-0.2-4.3-0.9-4.7-2.5c-0.2-0.8,0.3-1.6,0.8-2.2c0.4-0.6,0.8-1.1,0.6-1.6
						c-0.6-1.3-4.6-1.3-5.3,0.1c-0.3,0.6,0,1.2,0.3,1.8c0.3,0.6,0.6,1.2,0.3,1.7c-0.6,1-3.2,0.9-4-0.1c-0.2-0.3-0.2-0.6-0.2-0.9
						s0-0.7-0.2-1.1c-0.4-0.7-1.4-1.4-2.2-1.3c-2.3,0.2-5,5.8-4.3,9.4c0,0,0,0,0,0.1c0.1,0.4,0.2,1.2-0.2,1.8
						c-0.4,0.7-1.3,0.9-2.8,1.2c-3.7,0.6-4.7,0.3-5,0.9c-0.3,0.5,0.3,1.2,0.9,2c0.8,1,1.6,2,1.3,3.1s-1.8,1.9-3,1.8
						c-1.1-0.2-1.7-1.1-2.7-2.8c-3-5.4-2.5-5.7-3.8-7.4c-2.3-2.7-3.7-1.4-6.3-4.6c-1.2-1.4-1.9-2.8-3.4-2.9
						c-0.8-0.1-1.8,0.2-2.1,0.9c-0.5,1.2,1.4,3.1,2.2,3.8c0.1,0.1,0.7,0.7,1.7,1.4c1.9,1.3,4.9,2.8,5.8,3.6l0,0c0.1,0.1,1,1,0.9,1.3
						c-0.1,0.2-0.3,0.1-0.6,0.1c-0.4,0-0.8-0.1-1.2,0.2c-0.4,0.3-0.3,0.8-0.3,1.3c0,0.4,0,0.8-0.2,1c-0.4,0.3-1.2-0.3-1.6-0.6
						c-1.6-1.1-1.7-2.2-2.8-3.4c-1.2-1.2-1.7-0.7-3.4-1.9c-2.7-2-2.3-4-4.1-4.6c-0.7-0.2-1.1-0.1-1.9,0.2c-0.7,0.3-1.6,0.6-3.1,0.9
						c-3.2,0.7-3.8,0-5.2,0.9c-1.3,0.8-0.9,1.5-2.9,4c-1.5,1.8-1.9,1.7-3.1,3.2c-1.7,2.3-1.1,2.9-2.4,4.3c-1.8,2-5,2.6-7.5,2.1
						c-0.7-0.2-2.1-0.5-3.2-1.6c-1.4-1.4-1.7-3-2.1-5.2l0,0c-0.5-2.7-0.7-4.1,0.1-5.6c0.9-1.5,2.6-2.8,4.4-2.8c0.9,0,1.4,0.2,2,0.5
						s1.2,0.6,2.3,0.6c0.6,0,2.5,0.1,3.7-1.2c1.5-1.6,1-4.7-0.3-6.5c-0.5-0.7-1-1.1-1.5-1.3c-0.4-0.3-0.7-0.5-0.7-0.9
						c0-1.2,3-1.3,6.7-3.2c2.1-1.1,4.2-2.8,8.3-6.3c2.3-1.9,3.1-2.7,4.6-3c1.4-0.3,2.4,0,3.5,0.4c0.6,0.2,1.3,0.4,2.2,0.6
						c3.8,0.7,7.9-0.5,10.6-2.4c2.8-2,5.9-6,4.9-8.5c-0.9-2.3-4.7-2.2-4.8-4c0-0.6,0.4-1,0.9-1.5c0.6-0.5,1.3-1.2,1.9-2.5l0,0
						c0.1-0.3,1.4-2.9,0.6-3.8c-1.4-1.4-8.8,1.7-9.9,6.4c-0.2,0.8-0.1,1.3,0,1.9c0.1,0.6,0.2,1.4,0.2,2.9c-0.1,2.4-0.9,6.6-2.4,6.8
						c-0.8,0.1-1.4-0.9-2.1-2c-0.9-1.4-1.9-3.2-3.7-3.5c-1.6-0.3-2.9,0.7-4,1.6c-1,0.8-1.8,1.4-2.6,1c-1.5-0.7-1.8-4.8,0-7.5
						c1.6-2.4,3.3-1.6,6.3-4.4c2.6-2.5,2.1-3.9,5.2-6.8c2-1.9,3.9-2.8,4.3-3c0.6-0.3,4.4-2.1,8.7-1.5c6.7,0.8,6.9,6,13.9,7.3
						c4.1,0.8,8.2-0.3,9.3-0.7l0,0c3.5-0.9,4.3-2.1,8.4-2.9C-178.3,44.2-178.4,44.7-174.4,44.1z M-278,48.3c-1-0.4-2.4,0.4-2.4,0.9
						c0,0.2,0.3,0.4,0.6,0.5c0.3,0.1,0.6,0.3,0.6,0.5c0,0.5-1.2,0.5-1.3,1.2c-0.1,0.6,0.6,1.4,1.5,1.8c0.6,0.3,1.1,0.2,1.7,0.1
						c0.5-0.1,1.1-0.2,1.9,0c1.1,0.3,1,0.8,1.8,0.8c0.7,0,1.2-0.3,1.9-0.9c0.4-0.3,0.8-0.7,1.5-1.1c2.1-1.4,3.5-1.4,3.5-1.9
						c0-0.7-1.8-1.5-3.5-1.6c-1.5-0.1-2.8,0.3-3.9,0.7c-1.2,0.4-2.1,0.7-2.8,0.1C-277.3,49-277.3,48.6-278,48.3z M-246.8,77.1
						c-3,1.9-6.8,2.3-7,1.6c-0.1-0.3,0.4-0.6,0.9-1c0.7-0.5,1.4-1,1.3-1.5c-0.2-0.8-2.5-0.6-2.7-1.3c-0.1-0.3,0.4-0.6,0.9-0.9
						c0.7-0.4,1.5-0.9,1.6-1.6c0.1-0.4-0.1-0.7-0.7-1.4c-0.3-0.3-0.6-0.8-1-1.4c-1.2-1.7-1.8-2.6-1.8-3.5c0-1.4,1-3.1,1.9-3
						c0.8,0,1.4,1.2,1.7,1.9c0.2,0.6,0.2,1.1,0.2,1.5s-0.1,0.8,0.1,1.2c0.4,1.1,1.1,0.9,2.2,2.3c1.4,1.7,0.8,2.7,2.2,3.9
						c1,0.9,1.9,0.9,2,1.6C-245.1,75.4-245.1,76-246.8,77.1z M-260.7,70.6c0.6-0.6,1.5-1.4,2.7-1.2c0.8,0.1,1.6,0.7,1.7,1.5
						c0.1,0.4-0.1,0.7-0.5,1.3c0,0.1-0.1,0.2-0.1,0.3c-1.1,2-0.9,1.9-1.2,2.4c-1.4,1.8-4.3,2.1-4.6,1.5c-0.1-0.2,0.1-0.4,0.4-0.8
						c0.4-0.5,1-1.1,0.9-2c0-0.3-0.1-0.4-0.2-0.6s-0.2-0.4-0.2-0.7C-261.8,71.7-261.1,71-260.7,70.6z M-14,89.6
						c-0.1,0.1,0,0.3,0.1,0.7c0.2,0.5,0.5,1.4,0.5,2.4c0,0.9-0.2,1.5-0.4,2s-0.3,0.8-0.1,1s0.5,0.1,1.8-0.2c0.3-0.1,0.6-0.1,0.9-0.2
						c1.9-0.4,2.1-0.4,2.8-0.7c1.3-0.5,2.5-0.9,2.5-1.5c0-0.8-1.9-1.8-3.6-1.9c-0.5,0-0.8,0-1,0c-0.3,0-0.6,0.1-1.1-0.1
						c-1-0.3-1.6-0.9-2-1.3C-13.7,89.7-13.9,89.6-14,89.6z M-7.2,100.8c-0.1-0.2-0.9-2-2.9-2.8c-0.5-0.2-1.6-0.5-1.8-0.1
						c-0.1,0.2,0,0.4,0.3,0.9c0.2,0.3,0.5,0.7,0.7,1.2c0.2,0.4,1,2.2,0.6,4.1c-0.1,0.7-0.3,1.4-0.9,1.8c-0.5,0.3-0.9,0.2-1.4,0
						c-0.4-0.1-0.8-0.2-1.1,0c-0.4,0.3-0.3,0.8-0.3,1.4c0.1,0.6,0.1,1.2-0.2,1.8c-1,1.6-3.7,0.3-5.5,2.1c-1.3,1.3-1,3.3-1,3.4
						c0.2,1.4,1.4,2.7,1.9,2.5c0.4-0.1,0.1-1.2,0.7-3c0.3-0.9,0.7-2,1.8-2.5c0.9-0.5,2.1-0.5,3,0c0.6,0.3,0.9,0.8,1.2,1.2
						c0.2,0.3,0.3,0.5,0.5,0.4c0.2,0,0.2-0.3,0.2-0.7c0-0.4,0-0.9,0.3-1.4c1-1.8,4.6-0.5,5.4-2c0.3-0.5,0.1-0.9-0.2-1.6
						c-0.3-0.7-0.7-1.7-0.9-3.2c-0.1-0.8-0.1-1.4-0.1-1.8C-6.9,102-6.9,101.6-7.2,100.8z M-265.6,121.1c4.7-5.7,4.6-9.1,8.7-10.8
						c1.8-0.7,1.7-0.1,6.7-0.9c4.3-0.7,5.1-1.3,10.2-2.4c9.4-2.1,10.6-1.2,11.1-0.7c1,1.1,0.7,2.5,0.4,3.9c-0.2,1.2-0.5,2.4,0,3.4
						c0.7,1.5,2.2,1,6.9,2.9c2.1,0.8,3.6,1.6,4.7,2.2c1.7,0.9,2.5,1.4,3.6,0.9c2.3-0.9,1.3-4,3.5-5.1c1.6-0.8,3.3,0.1,5.4,1.3
						c2.1,1.2,4.7,2.6,8.1,2.7h0.1c0.7,0,1.9,0,3.1,0.8c1.4,1,1.7,2.5,2.4,4.1c1.1,2.4,2.2,3.1,4.1,5.4c2.3,2.9,3.6,6,6.4,12.2
						c3.1,6.8,2.4,7.4,4.4,9.7c2,2.4,3.6,2.9,5.5,6s1.4,4.2,2.7,5.1c2.3,1.6,6.2-0.6,9.3-2.4c2.1-1.2,3.8-2.2,4.4-1.6
						c1.2,1.2-3.4,8-14.2,23.5c-7.7,11.1-8.3,11.8-8.8,14.2c-1.1,4.6-0.4,8.6,0.2,12c0.7,3.9,1.3,7.2-1.1,10.2
						c-2.6,3.2-5.9,2.7-7.5,6.6c-0.6,1.6-0.5,2.8-0.4,4.2c0.1,1.2,0.3,2.4-0.1,4.2c-0.6,3.3-2.2,5.3-5.3,9.3
						c-5,6.3-8.1,10.2-13.7,11.9c-2,0.6-7.5,2.3-11.1-0.4c-1.5-1.1-2.1-2.7-4-14.6c-1.4-8.8-1.1-8.6-1.8-11.1c-1-4-2.1-6.2-3-7.8
						c-0.9-1.8-1.5-3-1.5-5.4c0.1-3.1,1.1-4.9,2.1-6.6c1-1.7,1.9-3.3,1.4-5.8c-0.7-3.3-2.7-3.2-5.8-9.7c-1.4-3-2.1-4.7-2.2-7.1
						c-0.1-1.9,0.3-3.2,0.7-4.3c0.4-1.2,0.7-2.2,0.2-3.6c-0.9-2.6-3.6-3.8-5.8-4.9c-3.4-1.6-6.7-1.9-9.7-1.8
						c-4.6,0.2-7.1,1.2-9.2,2.2c-1.7,0.7-3.2,1.4-5.4,1.4c-9.1-0.1-18.7-11-19.5-20.8c-0.1-1.3,0.4-4.6,1.3-11.1l0,0l0,0l0,0l0,0
						c1-6.5,1.5-9.8,2.7-11.9C-272.4,125.8-270.4,127.1-265.6,121.1z M-398.9,136.3c0.5-1.4,3.3-1.7,4.9-1.7c2.8,0,5,1.2,6.2,1.9
						c2,1.1,2.1,1.7,4.4,2.8c1.5,0.7,2.4,0.9,2.4,1.3c0,0.7-1.8,1.5-3.4,1.3c-1.3-0.1-2.2-0.9-2.6-1.2c-1.4-1.2-1-1.9-2.2-2.9
						c-0.3-0.2-0.4-0.3-4.2-1.2c-2.2-0.5-2.7-0.6-3.4-0.3c-0.5,0.2-0.9,0.6-1.1,0.8c-0.3,0.3-0.5,0.5-0.7,0.4
						C-398.9,137.4-399,136.8-398.9,136.3z M-377.4,141.6c-0.6-0.2-0.9-0.3-1.1-0.1s-0.1,0.4-0.1,0.8c0.1,0.4,0.2,0.8-0.1,1.3
						c-0.2,0.4-0.5,0.6-0.8,0.7c-0.2,0.1-0.4,0.2-0.4,0.4c0,0.4,1.2,0.8,2.3,0.8c0.6,0,1-0.1,1.8-0.3c0.4-0.1,0.8-0.3,1.5-0.4
						c1.9-0.5,2.4-0.6,2.5-0.9c0.1-0.6-1.7-1.3-1.9-1.3c-1-0.3-1.2-0.2-2.6-0.5C-376.6,141.9-377,141.7-377.4,141.6z M-26.7,147.5
						c0.2-1.1,0.3-2.1-0.4-2.6c-0.7-0.5-1.7-0.5-2.3,0c-0.4,0.3-0.5,0.8-0.6,3.4c-0.1,3.1,0.1,3.5,0.2,3.8c0.4,0.9,0.9,0.9,2.8,2.3
						c2.2,1.6,3.2,2.5,3.7,3.5c0.4,1.1,0.2,2.2-0.1,4.5l0,0c-0.1,0.4-0.1,0.8-0.2,1.1c-0.2,1-0.3,1.5,0.1,2c0.6,0.7,1.4,0.2,2.4,1
						c1.4,1,1,2.7,1.8,2.9s2.1-1.3,2.3-2.9c0.1-0.7-0.1-1.1-0.5-1.8c-0.2-0.5-0.5-1.1-0.9-2.1c-0.9-2.4-0.6-2.9-1.4-4.5
						c-0.5-0.9-1-1.5-1.9-2.4c-2.8-3.1-3.8-2.6-4.6-4.2C-27.1,150.2-26.9,148.7-26.7,147.5z M-389.5,168c-0.6,1.6-0.2,2.7,0.2,4
						c0.3,1,0.7,2.1,0.6,3.4c-0.3,3.8-3.4,4.5-5.2,8.5c-1.7,3.7-0.9,7.4-0.2,10.4c0.1,0.4,0.2,0.8,0.2,1.1c2.2,11,11.5,12.6,17.7,23
						c2.5,4.2,3.2,11.7,4.4,26.5c1.6,18.6,0.2,25.8,4.9,36.5c1.2,2.8,4.1,8.7,10.1,12.4c3.8,2.3,7.8,3.1,8.1,2.5
						c0.1-0.2-0.4-0.6-1.2-1.2c-1.5-1.1-4-2.9-5.3-6c-0.6-1.5-0.6-2.4-0.7-4.8c0-0.8,0-1.8-0.1-3.1c-0.1-4.8-0.5-7.3-0.7-8.9
						c-0.2-1.8-0.4-2.5,0.1-3.9c1.3-4,4-3.6,9.6-9.4c2.4-2.5,4.5-5.7,8.7-12.2c6.3-9.8,5.4-10.1,8.8-14.2c5.1-6.1,7.2-5.7,9.7-10.6
						c2-3.9,1-5,2.9-12.1c1.5-5.4,3-8.2,4-10.1c1-1.8,1.5-2.7,1-4.3c-1.9-6.8-14.7-3.2-25.7-14.2c-2.8-2.8-4.2-5.2-8.8-8.8
						c-2.7-2.1-2.4-1.4-10-6.5c-4.3-2.9-5.3-3.7-7.7-4.4c-2.2-0.7-2.6-0.3-7.7-1.2c-2-0.3-3.4-0.6-4.4-0.9c-0.1,0-0.3-0.1-0.4-0.1
						c-0.5-0.2-1.2-0.4-2.1-0.4c0,0-0.4,0-0.8,0.1c-2.7,0.5-7.4,5.5-7.4,5.5C-388.3,166.5-389.3,167.6-389.5,168z M-101,163.1
						c0.5-0.1,1.2,1.4,1.7,2.4l0,0c0.7,1.4,0.7,2.1,0.7,2.5c0,0.3-0.1,0.8-0.4,1.3c-0.5,0.7-1.5,1.2-1.9,0.9
						c-0.2-0.1-0.2-0.4-0.1-0.8c0-0.3,0.1-0.7,0-1.3c-0.1-1.1-0.3-1.2-0.4-2.2C-101.6,164.8-101.5,163.2-101,163.1z M-46.9,179.7
						c-1.4,1.9,0.1,6.2,3,8.6l0,0c0.5,0.4,3.3,2.7,6,1.8c1.6-0.5,2.5-1.9,3.8-4.3c0.7-1.2,1.9-3.2,2.2-6c0.1-0.8,0.1-1.4,0.1-1.9
						c0-0.7,0-1.3,0.2-2.5c0.2-0.8,0.3-1.3,0.5-1.7c0.2-0.6,0.3-1,0.3-1.7c-0.2-1.9-1.7-3.8-2.8-3.7c-0.7,0.1-0.9,0.8-2.1,2.8
						c-1.3,2.2-2,3.3-2.9,4.3c-1.4,1.3-3,2-5,2.9C-46,179.3-46.4,179-46.9,179.7z M-67.6,174.2c-1.7-1.5-2.5-2.2-3-1.9
						c-0.8,0.4-0.6,2.3-0.1,3.5c0.8,2.1,2.5,2.4,4.4,4.2c2.1,1.9,1.6,2.8,3.8,6.3c1.9,2.8,5.8,7.6,7.8,6.8c1.1-0.4,1.6-2.6,1-4
						c-0.6-1.2-1.7-1.1-3-2.5c-1.1-1.3-0.9-2.3-1.5-3.8c-0.7-1.8-1.8-2.3-5.2-4.9C-65.2,176.3-66.5,175.1-67.6,174.2z M-4.5,185.4
						c-0.5-0.9-0.9-1.6-1.3-1.5c-0.8,0.2-1.5,4,0.3,6.1c1.6,1.9,3.8,0.9,7.7,3.3c1.4,0.9,2.6,1.7,2.9,3c0.2,1.2-0.5,2.3-1.1,3.2
						c-0.4,0.6-0.7,1-0.5,1.3c0.2,0.2,0.6,0,1.1-0.2c0.7-0.3,1.6-0.7,2.8-0.8c1.4-0.1,2.4,0.4,3.2,0.8c0.8,0.4,1.6,0.8,2.7,0.6
						s1.8-0.9,2.3-1.5c0.5-0.6,1-1,1.6-0.9c1.6,0.2,1.3,2.9,3.8,4.6c1.9,1.4,4.6,1.5,5,0.8c0.2-0.4-0.3-0.8-1-1.6
						c-0.6-0.6-1.4-1.4-2.2-2.5c-2.1-2.9-1.8-4.4-3-6.7C17,188.2,9,184.7,4,186.7c-1,0.4-1.7,0.9-2.3,1.3c-0.9,0.6-1.6,1.2-2.7,1
						C-2.6,188.7-3.7,186.8-4.5,185.4z M-49.8,196.3c-0.9-0.5-1.6-0.9-2.7-0.6c-0.1,0-1.1,0.3-1.2,0.9c-0.1,0.7,1.7,1.5,2,1.6
						c1.3,0.5,2.1,0.5,3,0.5c0.8,0,1.6-0.1,2.9,0.3c1.4,0.4,2,0.8,4,1.2s2.3,0.1,2.4-0.1c0.2-0.3-0.2-0.9-0.6-1.3
						c-0.3-0.3-0.7-0.3-1-0.3s-0.6,0-0.9-0.2c-1.1-0.4-1-1.4-1.9-1.8c-0.5-0.3-0.9-0.1-1.5,0.1c-0.4,0.2-0.9,0.4-1.6,0.4
						C-48.2,197.2-49,196.7-49.8,196.3z M0.3,208c-1-2-4.6-2.8-7.1-1.7c-0.6,0.3-1.3,1-2.8,2.4c-2.8,2.8-3.1,3.7-4.3,3.9
						c-0.9,0.1-1.5-0.3-2-0.7c-0.5-0.3-0.9-0.7-1.6-0.8c-1.9-0.3-3.2,1.6-4.8,4.1c-1.4,2-3.1,4.5-5.6,6.4
						c-6.3,4.9-11.3,1.5-14.9,6.2c-1.1,1.5-1.1,2.4-1.1,4s0.1,4-1.1,8.3c-0.2,0.6-0.4,1.2-0.5,1.8c-1,3.2-2.1,6.8-1.7,11.3
						c0.1,1,0.3,2.2,1.1,2.7c0.8,0.4,1.7-0.2,2.8-1c1.3-0.9,2.9-2,5.1-2.3c1.3-0.2,2.1,0,2.8,0.1c0.9,0.2,1.7,0.3,3.1,0
						c2.3-0.6,2.6-1.6,4.9-2.9c3.9-2.2,9.9-3,11.9-0.7c1.3,1.5,0.4,3.5,2.1,4.6c1,0.7,1.6,0.1,2.9,0.9c1.8,1.1,2.4,3.1,2.5,3.4
						c0.3,0.9,0.2,1.5,0.2,1.9c0,0.5,0,0.8,0.2,1.3c0.8,1.4,3.2,1.5,5.8,1.5l0,0c3.9,0.1,6.4,0.1,9-1.4c2-1.2,2-2.2,4.9-5.5
						c3-3.5,3.9-3.3,6.4-6c2.4-2.6,6.6-7,6.4-12.5c-0.1-3.4-1.9-7.3-4.3-10c-1.8-1.9-3.5-2.7-4.2-5.2c-0.2-0.8-0.2-1.4-0.2-2
						c0-0.7,0-1.4-0.2-2.6c-0.5-2.2-1.2-2.8-2-4.9c-1.1-2.8-1.2-5.1-1.2-6.6c0-1-0.1-1.5-0.3-1.6c-0.8-0.1-2.1,4.3-2.5,5.7l0,0
						c-1.7,5.7-1.4,8-3,8.7c-1.8,0.8-4.2-0.9-5.3-1.7l0,0c-0.9-0.6-3.4-2.4-3.1-4.2c0.2-1.5,2-1.9,2.1-3.8
						C0.7,209.4,0.7,208.7,0.3,208z M-166.9,216.4c-0.7,1-0.6,1.9-0.5,2.9c0.1,1.1,0.2,2.3-0.4,4.1c-0.8,2.5-1.7,2.3-2.2,4.4
						c-0.8,3.3,0.4,7.7,2.5,8.2c1.8,0.4,3.9-2.1,4.8-3.4c0.9-1.4,0.7-2,1.7-5.3c0.7-2.5,1.5-4.5,2.8-8.1c1.1-3,1.4-3.5,1.5-4.9
						c0.3-2.6-0.3-5.6-1.3-5.8c-0.4-0.1-0.7,0.4-1.1,1.2c-0.5,0.9-1.2,2.1-2.5,3.4C-164.2,215.4-165.7,214.6-166.9,216.4z
						 M46.2,268.2c0.6,0.5,2,0.3,2.8-0.4c1.3-1.1,0.5-2.6,1.8-3.7c1.1-1,2.3-0.1,4-1.2c1.1-0.7,1.9-2,1.6-2.5
						c-0.2-0.4-0.9-0.3-1.6-0.2c-0.8,0.1-1.7,0.2-2.1-0.4c-0.3-0.4-0.1-0.8,0.1-1.3c0.2-0.6,0.5-1.3,0.2-2.1c-0.4-1.1-1.5-2-2.1-1.8
						c-0.4,0.2-0.3,0.9-0.1,1.8c0.2,1.3,0.5,3.2-0.5,4.7c-1,1.6-2.3,1.2-3.5,3.1C46,265.5,45.4,267.5,46.2,268.2z M1.1,267.9
						c-0.4-1.3-4.2-1.9-5.4-0.4c-0.4,0.5-0.2,0.8-0.7,2.9c-0.2,0.7-0.3,1.2-0.4,1.6c-0.2,0.7-0.3,1-0.1,1.2c0.5,0.5,2.1-0.4,2.9-0.9
						c1.5-0.8,2.3-1.8,2.7-2.2l0,0C0.8,269,1.3,268.4,1.1,267.9z M24.5,277.6c-0.1-0.6,0.8-1,2.5-1.7c1.6-0.7,3.8-1.7,6.6-3.4
						c1.9-1.2,3.4-2.3,4.7-3.2c2.3-1.7,3.8-2.7,4.8-2.1c0.7,0.4,1,1.5,0.7,2.2c-0.4,0.9-1.8,0.4-3.4,1.6c-1.1,0.8-0.8,1.4-1.9,2.2
						c-1.4,1.1-2.4,0.4-4,1.2c-2.2,1-1.8,2.9-3.7,4C28.5,279.7,24.7,278.7,24.5,277.6z					">
<animateTransform  accumulate="none" additive="replace" attributeName="transform" begin="0s" calcMode="linear" dur="2s" fill="remove" from="0 0" repeatCount="indefinite" restart="always" to="-550 00" type="translate">
							</animateTransform>
					</path>
					
						<linearGradient id="ic-world-flat-map_3_" gradientUnits="userSpaceOnUse" x1="-1594.1211" y1="-25.4808" x2="-1594.1211" y2="-24.4654" gradientTransform="matrix(546.5533 0 0 274.9784 871055.1875 7030.5845)">
						<stop  offset="0" style="stop-color:#FFA077"/>
						<stop  offset="1" style="stop-color:#D32027"/>
					</linearGradient>
					<path id="ic-world-flat-map_1_" class="st7" d="M-326.6,31c-2.8-0.7-5-1.3-4.9-2.3c0-1.2,3.5-2.3,16.7-4.3
						c12.3-1.8,18.6-2.7,27.6-2.8l0,0c6.3,0,20.2-0.1,20.8,3.1c0.2,0.9-0.8,1.7-2.7,3.1c-1.7,1.3-4.1,3.1-7,6
						c-4.5,4.5-3.6,5-6.5,7.5c-7,6.1-11.7,2.6-19.2,8.1c-2.7,2-4.4,4.1-5.7,5.8c-1.7,2.1-2.8,3.6-4.9,3.5c-2.7-0.2-5.3-3-6.2-5.8
						c-1-3.3,0.4-6,1.8-8.5c1.2-2.3,2.4-4.5,1.6-6.8C-316.5,33.6-322.3,32.1-326.6,31z M-157.9,39.1c0.4-1,2.4-0.8,5-0.6
						c2,0.2,4.5,0.3,7,0.1c5.7-0.6,4.9-3,13.6-5.9c1.5-0.5,11.1-3.5,19.5-1.8c5.3,1.1,5.8,2.6,11.9,4.9c5.9,2.2,9.6,2.2,26.1,3.1
						c12.1,0.7,18.1,1,22.6,1.3c16.5,1.3,16.7,2.1,26.1,2.2c2.4,0,4.8,0.1,7.2,0.2c3,0.1,6.1,0.2,9.1,0.2c1.3,0,2.4,0,3.5,0
						c6.6-0.1,9.8-0.1,11.8,2.2s2.4,6.5,0.7,9.3C3,59.6-6.6,57.7-7.2,60.7c-0.2,0.9,0.7,1.7,1.8,2.7c1.4,1.3,3.3,3,4.4,6.1
						c0.7,2,1.3,5.2,0.1,6c-1.4,0.9-4.8-1.9-7.5-4.2l0,0c-3.3-2.8-4.9-4.2-5.4-6.5c-0.5-2.1,0.3-3.7,0.9-5c0.5-1,0.9-1.8,0.5-2.6
						c-2.3-4.2-25.9,1.4-26,7.4c0,0.9,0.5,1.4,2,2.8c1.1,1,2.7,2.5,5,4.9c4.1,4.4,6.2,6.6,6.6,8.4c0.6,2.4-0.2,3.9-1.3,5.9
						c-1.1,2.1-2.4,4.7-2.7,9.1c-0.1,1.9-0.3,4.5,0.7,7.7c0.7,2.1,1.5,3.5,2.2,4.6c0.6,1,0.9,1.5,0.7,1.9c-0.8,0.9-5.6-0.8-8.9-4.4
						c-2.4-2.7-2.1-4.5-4-5.3c-3.4-1.4-8.8,2.5-8.4,4.3c0.3,1.3,3.4,0.6,5.5,3.2c1.1,1.4,0.9,2.3,1.6,4.9c1.1,3.8,2.8,4.4,3.5,7.1
						c0.5,1.8,2.2,8-0.4,11.9c-3.6,5.3-12.7,0.6-17.7,6.6c-0.5,0.6-2.4,2.9-2,5.5c0.4,2.8,3,3.1,5.1,6.9c0.4,0.7,3,5.4,1.1,9.4
						c-1.2,2.3-3.9,4.3-5.9,3.8c-0.6-0.1-1.4-1-2.9-2.8c-1.6-1.7-2-2.4-3.2-3.6l0,0c-1-1-2.7-2.6-3.2-2.3c-0.2,0.1-0.1,0.4,0,0.9
						c0.1,0.6,0.4,1.5,0.2,2.6c-0.2,1.5-0.8,1.7-1,2.9c-0.5,2.5,1.5,5,2.2,5.9l0,0c1.8,2.2,2.7,1.6,4.1,3.7c1,1.6,0.7,2.2,2,4.4
						c0.7,1.2,1.4,2,1.8,2.4c0.3,0.4,0.5,0.6,0.4,0.7c-0.4,0.5-5.3-0.9-7.2-4.5c-0.7-1.3-0.5-2.1-1.7-4.3c-0.8-1.5-1.2-1.8-1.8-2.9
						c-1-1.9-1.3-3.7-1.5-5.5c-1-9.2-0.2-11-1.8-12.5c-1-1-1.9-0.9-3.1-0.9c-1.1,0-2.4,0.1-4-0.9c-4.9-2.8-3.7-8.5-7.4-9.7
						c-2.6-0.9-5.3,1.1-9.4,4.1c-4.2,3-7.3,5.3-8.3,9.1c-0.5,1.9-0.3,3.5,0,5c0.3,1.9,0.6,3.7-0.6,6.2c-0.6,1.4-1.6,3.4-2.9,3.5
						c0,0-3.2,0.3-12.7-26.8c0.4,0.8-0.8-1.7-1.3-2.4c-0.9-1.1-2.4-1.1-4-1.1c-0.6,0-1.3,0-1.9-0.1c-3.7-0.4-3.6-2.3-8.4-4.3
						c-3.1-1.3-3.3-0.5-11.7-2.2c-4.3-0.9-6.4-1.3-7.8-2.1c-2.9-1.6-4.6-3.9-5.8-5.4c-0.9-1.2-1.5-2-2.2-1.8
						c-1.1,0.4-1.1,3.5-0.6,5.6c0.6,2.2,2.3,5.6,5.2,6.2c1.4,0.3,2.6-0.3,3.7-0.8c1.2-0.6,2.2-1.1,3.6-0.5c1.1,0.4,0.9,1,2.8,2.8
						c2.8,2.6,4.6,2.5,5,4c0.5,1.7-1.5,3.7-2.4,4.6c-8.3,8.1-18.7,18.3-23,15.3c-0.9-0.6-1.5-1.9-2.7-4.4s-1.6-4.5-1.8-5.2
						c-1.3-5.3-5-6.8-9.4-14c-2-3.2-3.3-6.3-4.3-8.5c-0.9-1.9-1.4-3.2-1.7-3.1c-0.2,0.1-0.2,0.7-0.2,1.4c0,0.8,0.1,1.7-0.3,1.8
						c-0.7,0.3-2.2-2.5-2.8-3.6c-1-1.8-0.8-2.1-0.7-2.2s0.3-0.1,0.5,0c0.1,0,0.1,0,0.2,0c1.2,0.2,2.4-1.2,2.9-1.7
						c2-2.3,3.5-9,1.1-10.5c-0.6-0.4-1.1-0.2-2,0.1c-0.6,0.2-1.5,0.5-2.8,0.7c-2,0.3-6.6,1.1-9.3-1.4c-1.7-1.6-2.6-4.6-1.5-6.2
						c0.4-0.7,1.1-0.9,3.1-1.5c4-1.2,6-1.8,7-1.9c1.9-0.1,3.1,0.4,4.2,0.8c0.7,0.3,1.4,0.5,2.2,0.7c0.6,0.1,1.3,0.2,2.3,0.1
						c0.9,0,3.9-0.2,4.4-1.5c0.2-0.5-0.1-1-0.4-1.5c-0.2-0.3-0.4-0.6-0.2-0.8c0.8-1.1,10,2.1,13.6,4.3l0,0c0.2,0.1,0.8,0.5,1.1,0.3
						c0.4-0.3,0.2-1.3-0.1-2.6c-0.2-0.7-0.4-1.4-0.5-2.2c-0.4-2.2-0.1-3.5,0.3-4.8c0.3-1.2,0.6-2.3,0.3-4.3
						c-0.3-1.9-0.9-3.2-1.4-4.2s-0.8-1.6-0.4-2.2c0.6-1,2.1-0.7,3.8-0.5c1.8,0.3,3.9,0.5,5.1-0.6c3.1-2.9-1.3-12.5-1.5-13.1
						c-1.4-3-3.1-5.2-4.4-7c-1.7-2.2-2.8-3.7-2.1-5.1c0.9-1.9,3.8-1.3,5.5-4c0.3-0.5,0.4-1.2,1-2.2c0.8-1.5,1.2-1.6,1.5-2.3
						c0.4-1.1-0.1-2-0.5-2.8C-157.9,40.1-158.2,39.6-157.9,39.1z M-394.9,163.5c-0.9-0.2-3.1-0.9-4.1-2.7c-0.5-0.8-0.4-1.4-0.3-2.6
						c0.1-0.8,0.2-1.8,0.1-3.3c-0.1-2.9-0.1-4.3-0.9-5c-1.1-1-2.7-0.5-4.3-0.1c-1.3,0.4-2.5,0.7-3.1,0.1c-1.1-1.1,0.5-4.4,1.9-7.2
						c1.1-2.2,2-4.1,1.5-4.5c-0.3-0.3-0.9,0.2-1.9,0.9c-1.4,1-3.4,2.4-6.2,3.1l0,0c-0.6,0.2-6.1,1.5-8.7-0.9
						c-3.8-3.5-1.8-15.2,5.8-20.5c6.8-4.8,17.1-3.5,20.9,1.2c1,1.2,1.6,2.7,2,3.8c0.4,1,0.6,1.6,1,1.6c0.4-0.1,0.4-0.9,0.4-2.2
						c0-2.2,0-5.8,2-8.7c2.7-3.9,6-2.3,9.7-6.5c3.4-3.8,1.8-6.3,5.3-10c2.8-3,4.8-2.3,8.8-4.7c6.7-4,5.6-8.3,11-12.8
						c8.2-6.8,16.8-2,19.7-7.3c2.8-5-2-14.6-7.1-15.6c-1.4-0.3-2.5,0.2-3.6,0.6c-1.3,0.5-2.6,1-4.3,0.6c-4-1.1-4.2-5.5-6.8-5.6
						c-1.9-0.1-3.3,2.1-9.1,11.8c-4.2,6.9-4.8,7.8-6.2,8.3c-5.5,1.6-15.2-7.2-13.9-12.7c0.7-3,4.3-3.1,14.7-8.6
						c8.4-4.3,15.3-9,14.7-10.3c-0.2-0.4-1-0.3-2.2-0.2c-1.9,0.3-4.9,0.6-7.6-1c-2.9-1.8-2.8-4.3-5-4.7c-1.9-0.4-3.4,1.1-5.2,2.8
						c-0.9,0.8-1.8,1.7-2.8,2.5c-4,2.9-8,2.2-15.2,1.1c-2.7-0.4-5.8-0.9-9.6-1.3c-7.4-0.8-10.9-0.6-14-0.4
						c-3.2,0.2-6.1,0.4-12.6-0.5c-5.1-0.8-8.4-1.6-11-2.3c-3.7-1-6.1-1.6-10.8-1.2c-3.4,0.3-11.5,1.1-18.6,6.5
						c-4.2,3.2-4.1,5.1-9.4,8.6c-4.8,3.1-7.5,3.4-9.1,6.5c-1.6,3-1.8,7.7,0.3,9.1c1.7,1.2,4.1-0.6,7.3-3c4.2-3.1,9.9-7.3,17.5-7.6
						c1.2,0,11.8-0.3,16.8,7.1c4.2,6.2,1.9,13.8,1.8,14.2c-2.3,7.1-7.8,6.8-10.6,14.2c-2.3,6-0.8,11.8,0,15
						c1.5,5.8,3.7,7.2,10.6,17.7c9.5,14.4,8,15.7,12.4,18.6c5.8,3.8,8.7,1.5,18.6,7.1c3.4,1.9,6,3.4,9,6.2c0,0,3.9,4.6,7,6.7
						c0.5,0.4,1,0.6,1.7,1c1.7,0.9,2.2,0.8,2.4,0.8c0.7-0.2,0.6-0.9,1.3-1.1c0.5-0.2,0.9,0.1,1.4,0.3c0.4,0.2,0.8,0.4,1.2,0.3
						c0.7-0.2,1.3-1.5,0.9-2.1c-0.3-0.5-0.9-0.4-1.9-0.4C-392.1,163.8-393.4,163.9-394.9,163.5z M-174.4,44.1
						c3.4-0.5,4.4-1.1,7.7-1.5c4.9-0.6,5.6,0.2,5.8,0.5c0.7,1,0.2,2.6-0.4,3.6c-0.9,1.3-1.9,1.2-3.8,2.8c-1,0.8-1.9,1.5-2.3,2.4
						c-0.7,1.6,0.5,3.3,2.3,5.7c1.2,1.7,2.7,3.8,4,6.4c0.9,1.8,4.2,8.6,1.9,11.1c-1.1,1.2-3,1-4.8,0.8s-3.4-0.4-4.2,0.7
						c-0.5,0.7-0.3,1.4,0.1,2.6c0.4,1.2,1,3,1.1,5.8c0.1,1.2,0,2-0.1,2.7c-0.1,0.9-0.2,1.7,0.1,3.3c0.1,0.8,0.3,1.5,0.4,2
						c0.3,1.2,0.4,2,0,2.3c-0.3,0.2-0.7,0.1-1.7-0.4c-0.4-0.2-0.8-0.4-1.4-0.6c-0.6-0.2-2.9-1.2-5.5-1.8c-0.8-0.2-1.7-0.4-2.8-0.5
						c-1-0.1-1.6-0.1-2.1,0c-0.4,0-0.8,0-1.4,0c-1.4-0.2-4.3-0.9-4.7-2.5c-0.2-0.8,0.3-1.6,0.8-2.2c0.4-0.6,0.8-1.1,0.6-1.6
						c-0.6-1.3-4.6-1.3-5.3,0.1c-0.3,0.6,0,1.2,0.3,1.8c0.3,0.6,0.6,1.2,0.3,1.7c-0.6,1-3.2,0.9-4-0.1c-0.2-0.3-0.2-0.6-0.2-0.9
						s0-0.7-0.2-1.1c-0.4-0.7-1.4-1.4-2.2-1.3c-2.3,0.2-5,5.8-4.3,9.4c0,0,0,0,0,0.1c0.1,0.4,0.2,1.2-0.2,1.8
						c-0.4,0.7-1.3,0.9-2.8,1.2c-3.7,0.6-4.7,0.3-5,0.9c-0.3,0.5,0.3,1.2,0.9,2c0.8,1,1.6,2,1.3,3.1s-1.8,1.9-3,1.8
						c-1.1-0.2-1.7-1.1-2.7-2.8c-3-5.4-2.5-5.7-3.8-7.4c-2.3-2.7-3.7-1.4-6.3-4.6c-1.2-1.4-1.9-2.8-3.4-2.9
						c-0.8-0.1-1.8,0.2-2.1,0.9c-0.5,1.2,1.4,3.1,2.2,3.8c0.1,0.1,0.7,0.7,1.7,1.4c1.9,1.3,4.9,2.8,5.8,3.6l0,0c0.1,0.1,1,1,0.9,1.3
						c-0.1,0.2-0.3,0.1-0.6,0.1c-0.4,0-0.8-0.1-1.2,0.2c-0.4,0.3-0.3,0.8-0.3,1.3c0,0.4,0,0.8-0.2,1c-0.4,0.3-1.2-0.3-1.6-0.6
						c-1.6-1.1-1.7-2.2-2.8-3.4c-1.2-1.2-1.7-0.7-3.4-1.9c-2.7-2-2.3-4-4.1-4.6c-0.7-0.2-1.1-0.1-1.9,0.2c-0.7,0.3-1.6,0.6-3.1,0.9
						c-3.2,0.7-3.8,0-5.2,0.9c-1.3,0.8-0.9,1.5-2.9,4c-1.5,1.8-1.9,1.7-3.1,3.2c-1.7,2.3-1.1,2.9-2.4,4.3c-1.8,2-5,2.6-7.5,2.1
						c-0.7-0.2-2.1-0.5-3.2-1.6c-1.4-1.4-1.7-3-2.1-5.2l0,0c-0.5-2.7-0.7-4.1,0.1-5.6c0.9-1.5,2.6-2.8,4.4-2.8c0.9,0,1.4,0.2,2,0.5
						s1.2,0.6,2.3,0.6c0.6,0,2.5,0.1,3.7-1.2c1.5-1.6,1-4.7-0.3-6.5c-0.5-0.7-1-1.1-1.5-1.3c-0.4-0.3-0.7-0.5-0.7-0.9
						c0-1.2,3-1.3,6.7-3.2c2.1-1.1,4.2-2.8,8.3-6.3c2.3-1.9,3.1-2.7,4.6-3c1.4-0.3,2.4,0,3.5,0.4c0.6,0.2,1.3,0.4,2.2,0.6
						c3.8,0.7,7.9-0.5,10.6-2.4c2.8-2,5.9-6,4.9-8.5c-0.9-2.3-4.7-2.2-4.8-4c0-0.6,0.4-1,0.9-1.5c0.6-0.5,1.3-1.2,1.9-2.5l0,0
						c0.1-0.3,1.4-2.9,0.6-3.8c-1.4-1.4-8.8,1.7-9.9,6.4c-0.2,0.8-0.1,1.3,0,1.9c0.1,0.6,0.2,1.4,0.2,2.9c-0.1,2.4-0.9,6.6-2.4,6.8
						c-0.8,0.1-1.4-0.9-2.1-2c-0.9-1.4-1.9-3.2-3.7-3.5c-1.6-0.3-2.9,0.7-4,1.6c-1,0.8-1.8,1.4-2.6,1c-1.5-0.7-1.8-4.8,0-7.5
						c1.6-2.4,3.3-1.6,6.3-4.4c2.6-2.5,2.1-3.9,5.2-6.8c2-1.9,3.9-2.8,4.3-3c0.6-0.3,4.4-2.1,8.7-1.5c6.7,0.8,6.9,6,13.9,7.3
						c4.1,0.8,8.2-0.3,9.3-0.7l0,0c3.5-0.9,4.3-2.1,8.4-2.9C-178.3,44.2-178.4,44.7-174.4,44.1z M-278,48.3c-1-0.4-2.4,0.4-2.4,0.9
						c0,0.2,0.3,0.4,0.6,0.5c0.3,0.1,0.6,0.3,0.6,0.5c0,0.5-1.2,0.5-1.3,1.2c-0.1,0.6,0.6,1.4,1.5,1.8c0.6,0.3,1.1,0.2,1.7,0.1
						c0.5-0.1,1.1-0.2,1.9,0c1.1,0.3,1,0.8,1.8,0.8c0.7,0,1.2-0.3,1.9-0.9c0.4-0.3,0.8-0.7,1.5-1.1c2.1-1.4,3.5-1.4,3.5-1.9
						c0-0.7-1.8-1.5-3.5-1.6c-1.5-0.1-2.8,0.3-3.9,0.7c-1.2,0.4-2.1,0.7-2.8,0.1C-277.3,49-277.3,48.6-278,48.3z M-246.8,77.1
						c-3,1.9-6.8,2.3-7,1.6c-0.1-0.3,0.4-0.6,0.9-1c0.7-0.5,1.4-1,1.3-1.5c-0.2-0.8-2.5-0.6-2.7-1.3c-0.1-0.3,0.4-0.6,0.9-0.9
						c0.7-0.4,1.5-0.9,1.6-1.6c0.1-0.4-0.1-0.7-0.7-1.4c-0.3-0.3-0.6-0.8-1-1.4c-1.2-1.7-1.8-2.6-1.8-3.5c0-1.4,1-3.1,1.9-3
						c0.8,0,1.4,1.2,1.7,1.9c0.2,0.6,0.2,1.1,0.2,1.5s-0.1,0.8,0.1,1.2c0.4,1.1,1.1,0.9,2.2,2.3c1.4,1.7,0.8,2.7,2.2,3.9
						c1,0.9,1.9,0.9,2,1.6C-245.1,75.4-245.1,76-246.8,77.1z M-260.7,70.6c0.6-0.6,1.5-1.4,2.7-1.2c0.8,0.1,1.6,0.7,1.7,1.5
						c0.1,0.4-0.1,0.7-0.5,1.3c0,0.1-0.1,0.2-0.1,0.3c-1.1,2-0.9,1.9-1.2,2.4c-1.4,1.8-4.3,2.1-4.6,1.5c-0.1-0.2,0.1-0.4,0.4-0.8
						c0.4-0.5,1-1.1,0.9-2c0-0.3-0.1-0.4-0.2-0.6s-0.2-0.4-0.2-0.7C-261.8,71.7-261.1,71-260.7,70.6z M-14,89.6
						c-0.1,0.1,0,0.3,0.1,0.7c0.2,0.5,0.5,1.4,0.5,2.4c0,0.9-0.2,1.5-0.4,2s-0.3,0.8-0.1,1s0.5,0.1,1.8-0.2c0.3-0.1,0.6-0.1,0.9-0.2
						c1.9-0.4,2.1-0.4,2.8-0.7c1.3-0.5,2.5-0.9,2.5-1.5c0-0.8-1.9-1.8-3.6-1.9c-0.5,0-0.8,0-1,0c-0.3,0-0.6,0.1-1.1-0.1
						c-1-0.3-1.6-0.9-2-1.3C-13.7,89.7-13.9,89.6-14,89.6z M-7.2,100.8c-0.1-0.2-0.9-2-2.9-2.8c-0.5-0.2-1.6-0.5-1.8-0.1
						c-0.1,0.2,0,0.4,0.3,0.9c0.2,0.3,0.5,0.7,0.7,1.2c0.2,0.4,1,2.2,0.6,4.1c-0.1,0.7-0.3,1.4-0.9,1.8c-0.5,0.3-0.9,0.2-1.4,0
						c-0.4-0.1-0.8-0.2-1.1,0c-0.4,0.3-0.3,0.8-0.3,1.4c0.1,0.6,0.1,1.2-0.2,1.8c-1,1.6-3.7,0.3-5.5,2.1c-1.3,1.3-1,3.3-1,3.4
						c0.2,1.4,1.4,2.7,1.9,2.5c0.4-0.1,0.1-1.2,0.7-3c0.3-0.9,0.7-2,1.8-2.5c0.9-0.5,2.1-0.5,3,0c0.6,0.3,0.9,0.8,1.2,1.2
						c0.2,0.3,0.3,0.5,0.5,0.4c0.2,0,0.2-0.3,0.2-0.7c0-0.4,0-0.9,0.3-1.4c1-1.8,4.6-0.5,5.4-2c0.3-0.5,0.1-0.9-0.2-1.6
						c-0.3-0.7-0.7-1.7-0.9-3.2c-0.1-0.8-0.1-1.4-0.1-1.8C-6.9,102-6.9,101.6-7.2,100.8z M-265.6,121.1c4.7-5.7,4.6-9.1,8.7-10.8
						c1.8-0.7,1.7-0.1,6.7-0.9c4.3-0.7,5.1-1.3,10.2-2.4c9.4-2.1,10.6-1.2,11.1-0.7c1,1.1,0.7,2.5,0.4,3.9c-0.2,1.2-0.5,2.4,0,3.4
						c0.7,1.5,2.2,1,6.9,2.9c2.1,0.8,3.6,1.6,4.7,2.2c1.7,0.9,2.5,1.4,3.6,0.9c2.3-0.9,1.3-4,3.5-5.1c1.6-0.8,3.3,0.1,5.4,1.3
						c2.1,1.2,4.7,2.6,8.1,2.7h0.1c0.7,0,1.9,0,3.1,0.8c1.4,1,1.7,2.5,2.4,4.1c1.1,2.4,2.2,3.1,4.1,5.4c2.3,2.9,3.6,6,6.4,12.2
						c3.1,6.8,2.4,7.4,4.4,9.7c2,2.4,3.6,2.9,5.5,6s1.4,4.2,2.7,5.1c2.3,1.6,6.2-0.6,9.3-2.4c2.1-1.2,3.8-2.2,4.4-1.6
						c1.2,1.2-3.4,8-14.2,23.5c-7.7,11.1-8.3,11.8-8.8,14.2c-1.1,4.6-0.4,8.6,0.2,12c0.7,3.9,1.3,7.2-1.1,10.2
						c-2.6,3.2-5.9,2.7-7.5,6.6c-0.6,1.6-0.5,2.8-0.4,4.2c0.1,1.2,0.3,2.4-0.1,4.2c-0.6,3.3-2.2,5.3-5.3,9.3
						c-5,6.3-8.1,10.2-13.7,11.9c-2,0.6-7.5,2.3-11.1-0.4c-1.5-1.1-2.1-2.7-4-14.6c-1.4-8.8-1.1-8.6-1.8-11.1c-1-4-2.1-6.2-3-7.8
						c-0.9-1.8-1.5-3-1.5-5.4c0.1-3.1,1.1-4.9,2.1-6.6c1-1.7,1.9-3.3,1.4-5.8c-0.7-3.3-2.7-3.2-5.8-9.7c-1.4-3-2.1-4.7-2.2-7.1
						c-0.1-1.9,0.3-3.2,0.7-4.3c0.4-1.2,0.7-2.2,0.2-3.6c-0.9-2.6-3.6-3.8-5.8-4.9c-3.4-1.6-6.7-1.9-9.7-1.8
						c-4.6,0.2-7.1,1.2-9.2,2.2c-1.7,0.7-3.2,1.4-5.4,1.4c-9.1-0.1-18.7-11-19.5-20.8c-0.1-1.3,0.4-4.6,1.3-11.1l0,0l0,0l0,0l0,0
						c1-6.5,1.5-9.8,2.7-11.9C-272.4,125.8-270.4,127.1-265.6,121.1z M-398.9,136.3c0.5-1.4,3.3-1.7,4.9-1.7c2.8,0,5,1.2,6.2,1.9
						c2,1.1,2.1,1.7,4.4,2.8c1.5,0.7,2.4,0.9,2.4,1.3c0,0.7-1.8,1.5-3.4,1.3c-1.3-0.1-2.2-0.9-2.6-1.2c-1.4-1.2-1-1.9-2.2-2.9
						c-0.3-0.2-0.4-0.3-4.2-1.2c-2.2-0.5-2.7-0.6-3.4-0.3c-0.5,0.2-0.9,0.6-1.1,0.8c-0.3,0.3-0.5,0.5-0.7,0.4
						C-398.9,137.4-399,136.8-398.9,136.3z M-377.4,141.6c-0.6-0.2-0.9-0.3-1.1-0.1s-0.1,0.4-0.1,0.8c0.1,0.4,0.2,0.8-0.1,1.3
						c-0.2,0.4-0.5,0.6-0.8,0.7c-0.2,0.1-0.4,0.2-0.4,0.4c0,0.4,1.2,0.8,2.3,0.8c0.6,0,1-0.1,1.8-0.3c0.4-0.1,0.8-0.3,1.5-0.4
						c1.9-0.5,2.4-0.6,2.5-0.9c0.1-0.6-1.7-1.3-1.9-1.3c-1-0.3-1.2-0.2-2.6-0.5C-376.6,141.9-377,141.7-377.4,141.6z M-26.7,147.5
						c0.2-1.1,0.3-2.1-0.4-2.6c-0.7-0.5-1.7-0.5-2.3,0c-0.4,0.3-0.5,0.8-0.6,3.4c-0.1,3.1,0.1,3.5,0.2,3.8c0.4,0.9,0.9,0.9,2.8,2.3
						c2.2,1.6,3.2,2.5,3.7,3.5c0.4,1.1,0.2,2.2-0.1,4.5l0,0c-0.1,0.4-0.1,0.8-0.2,1.1c-0.2,1-0.3,1.5,0.1,2c0.6,0.7,1.4,0.2,2.4,1
						c1.4,1,1,2.7,1.8,2.9s2.1-1.3,2.3-2.9c0.1-0.7-0.1-1.1-0.5-1.8c-0.2-0.5-0.5-1.1-0.9-2.1c-0.9-2.4-0.6-2.9-1.4-4.5
						c-0.5-0.9-1-1.5-1.9-2.4c-2.8-3.1-3.8-2.6-4.6-4.2C-27.1,150.2-26.9,148.7-26.7,147.5z M-389.5,168c-0.6,1.6-0.2,2.7,0.2,4
						c0.3,1,0.7,2.1,0.6,3.4c-0.3,3.8-3.4,4.5-5.2,8.5c-1.7,3.7-0.9,7.4-0.2,10.4c0.1,0.4,0.2,0.8,0.2,1.1c2.2,11,11.5,12.6,17.7,23
						c2.5,4.2,3.2,11.7,4.4,26.5c1.6,18.6,0.2,25.8,4.9,36.5c1.2,2.8,4.1,8.7,10.1,12.4c3.8,2.3,7.8,3.1,8.1,2.5
						c0.1-0.2-0.4-0.6-1.2-1.2c-1.5-1.1-4-2.9-5.3-6c-0.6-1.5-0.6-2.4-0.7-4.8c0-0.8,0-1.8-0.1-3.1c-0.1-4.8-0.5-7.3-0.7-8.9
						c-0.2-1.8-0.4-2.5,0.1-3.9c1.3-4,4-3.6,9.6-9.4c2.4-2.5,4.5-5.7,8.7-12.2c6.3-9.8,5.4-10.1,8.8-14.2c5.1-6.1,7.2-5.7,9.7-10.6
						c2-3.9,1-5,2.9-12.1c1.5-5.4,3-8.2,4-10.1c1-1.8,1.5-2.7,1-4.3c-1.9-6.8-14.7-3.2-25.7-14.2c-2.8-2.8-4.2-5.2-8.8-8.8
						c-2.7-2.1-2.4-1.4-10-6.5c-4.3-2.9-5.3-3.7-7.7-4.4c-2.2-0.7-2.6-0.3-7.7-1.2c-2-0.3-3.4-0.6-4.4-0.9c-0.1,0-0.3-0.1-0.4-0.1
						c-0.5-0.2-1.2-0.4-2.1-0.4c0,0-0.4,0-0.8,0.1c-2.7,0.5-7.4,5.5-7.4,5.5C-388.3,166.5-389.3,167.6-389.5,168z M-101,163.1
						c0.5-0.1,1.2,1.4,1.7,2.4l0,0c0.7,1.4,0.7,2.1,0.7,2.5c0,0.3-0.1,0.8-0.4,1.3c-0.5,0.7-1.5,1.2-1.9,0.9
						c-0.2-0.1-0.2-0.4-0.1-0.8c0-0.3,0.1-0.7,0-1.3c-0.1-1.1-0.3-1.2-0.4-2.2C-101.6,164.8-101.5,163.2-101,163.1z M-46.9,179.7
						c-1.4,1.9,0.1,6.2,3,8.6l0,0c0.5,0.4,3.3,2.7,6,1.8c1.6-0.5,2.5-1.9,3.8-4.3c0.7-1.2,1.9-3.2,2.2-6c0.1-0.8,0.1-1.4,0.1-1.9
						c0-0.7,0-1.3,0.2-2.5c0.2-0.8,0.3-1.3,0.5-1.7c0.2-0.6,0.3-1,0.3-1.7c-0.2-1.9-1.7-3.8-2.8-3.7c-0.7,0.1-0.9,0.8-2.1,2.8
						c-1.3,2.2-2,3.3-2.9,4.3c-1.4,1.3-3,2-5,2.9C-46,179.3-46.4,179-46.9,179.7z M-67.6,174.2c-1.7-1.5-2.5-2.2-3-1.9
						c-0.8,0.4-0.6,2.3-0.1,3.5c0.8,2.1,2.5,2.4,4.4,4.2c2.1,1.9,1.6,2.8,3.8,6.3c1.9,2.8,5.8,7.6,7.8,6.8c1.1-0.4,1.6-2.6,1-4
						c-0.6-1.2-1.7-1.1-3-2.5c-1.1-1.3-0.9-2.3-1.5-3.8c-0.7-1.8-1.8-2.3-5.2-4.9C-65.2,176.3-66.5,175.1-67.6,174.2z M-4.5,185.4
						c-0.5-0.9-0.9-1.6-1.3-1.5c-0.8,0.2-1.5,4,0.3,6.1c1.6,1.9,3.8,0.9,7.7,3.3c1.4,0.9,2.6,1.7,2.9,3c0.2,1.2-0.5,2.3-1.1,3.2
						c-0.4,0.6-0.7,1-0.5,1.3c0.2,0.2,0.6,0,1.1-0.2c0.7-0.3,1.6-0.7,2.8-0.8c1.4-0.1,2.4,0.4,3.2,0.8c0.8,0.4,1.6,0.8,2.7,0.6
						s1.8-0.9,2.3-1.5c0.5-0.6,1-1,1.6-0.9c1.6,0.2,1.3,2.9,3.8,4.6c1.9,1.4,4.6,1.5,5,0.8c0.2-0.4-0.3-0.8-1-1.6
						c-0.6-0.6-1.4-1.4-2.2-2.5c-2.1-2.9-1.8-4.4-3-6.7C17,188.2,9,184.7,4,186.7c-1,0.4-1.7,0.9-2.3,1.3c-0.9,0.6-1.6,1.2-2.7,1
						C-2.6,188.7-3.7,186.8-4.5,185.4z M-49.8,196.3c-0.9-0.5-1.6-0.9-2.7-0.6c-0.1,0-1.1,0.3-1.2,0.9c-0.1,0.7,1.7,1.5,2,1.6
						c1.3,0.5,2.1,0.5,3,0.5c0.8,0,1.6-0.1,2.9,0.3c1.4,0.4,2,0.8,4,1.2s2.3,0.1,2.4-0.1c0.2-0.3-0.2-0.9-0.6-1.3
						c-0.3-0.3-0.7-0.3-1-0.3s-0.6,0-0.9-0.2c-1.1-0.4-1-1.4-1.9-1.8c-0.5-0.3-0.9-0.1-1.5,0.1c-0.4,0.2-0.9,0.4-1.6,0.4
						C-48.2,197.2-49,196.7-49.8,196.3z M0.3,208c-1-2-4.6-2.8-7.1-1.7c-0.6,0.3-1.3,1-2.8,2.4c-2.8,2.8-3.1,3.7-4.3,3.9
						c-0.9,0.1-1.5-0.3-2-0.7c-0.5-0.3-0.9-0.7-1.6-0.8c-1.9-0.3-3.2,1.6-4.8,4.1c-1.4,2-3.1,4.5-5.6,6.4
						c-6.3,4.9-11.3,1.5-14.9,6.2c-1.1,1.5-1.1,2.4-1.1,4s0.1,4-1.1,8.3c-0.2,0.6-0.4,1.2-0.5,1.8c-1,3.2-2.1,6.8-1.7,11.3
						c0.1,1,0.3,2.2,1.1,2.7c0.8,0.4,1.7-0.2,2.8-1c1.3-0.9,2.9-2,5.1-2.3c1.3-0.2,2.1,0,2.8,0.1c0.9,0.2,1.7,0.3,3.1,0
						c2.3-0.6,2.6-1.6,4.9-2.9c3.9-2.2,9.9-3,11.9-0.7c1.3,1.5,0.4,3.5,2.1,4.6c1,0.7,1.6,0.1,2.9,0.9c1.8,1.1,2.4,3.1,2.5,3.4
						c0.3,0.9,0.2,1.5,0.2,1.9c0,0.5,0,0.8,0.2,1.3c0.8,1.4,3.2,1.5,5.8,1.5l0,0c3.9,0.1,6.4,0.1,9-1.4c2-1.2,2-2.2,4.9-5.5
						c3-3.5,3.9-3.3,6.4-6c2.4-2.6,6.6-7,6.4-12.5c-0.1-3.4-1.9-7.3-4.3-10c-1.8-1.9-3.5-2.7-4.2-5.2c-0.2-0.8-0.2-1.4-0.2-2
						c0-0.7,0-1.4-0.2-2.6c-0.5-2.2-1.2-2.8-2-4.9c-1.1-2.8-1.2-5.1-1.2-6.6c0-1-0.1-1.5-0.3-1.6c-0.8-0.1-2.1,4.3-2.5,5.7l0,0
						c-1.7,5.7-1.4,8-3,8.7c-1.8,0.8-4.2-0.9-5.3-1.7l0,0c-0.9-0.6-3.4-2.4-3.1-4.2c0.2-1.5,2-1.9,2.1-3.8
						C0.7,209.4,0.7,208.7,0.3,208z M-166.9,216.4c-0.7,1-0.6,1.9-0.5,2.9c0.1,1.1,0.2,2.3-0.4,4.1c-0.8,2.5-1.7,2.3-2.2,4.4
						c-0.8,3.3,0.4,7.7,2.5,8.2c1.8,0.4,3.9-2.1,4.8-3.4c0.9-1.4,0.7-2,1.7-5.3c0.7-2.5,1.5-4.5,2.8-8.1c1.1-3,1.4-3.5,1.5-4.9
						c0.3-2.6-0.3-5.6-1.3-5.8c-0.4-0.1-0.7,0.4-1.1,1.2c-0.5,0.9-1.2,2.1-2.5,3.4C-164.2,215.4-165.7,214.6-166.9,216.4z
						 M46.2,268.2c0.6,0.5,2,0.3,2.8-0.4c1.3-1.1,0.5-2.6,1.8-3.7c1.1-1,2.3-0.1,4-1.2c1.1-0.7,1.9-2,1.6-2.5
						c-0.2-0.4-0.9-0.3-1.6-0.2c-0.8,0.1-1.7,0.2-2.1-0.4c-0.3-0.4-0.1-0.8,0.1-1.3c0.2-0.6,0.5-1.3,0.2-2.1c-0.4-1.1-1.5-2-2.1-1.8
						c-0.4,0.2-0.3,0.9-0.1,1.8c0.2,1.3,0.5,3.2-0.5,4.7c-1,1.6-2.3,1.2-3.5,3.1C46,265.5,45.4,267.5,46.2,268.2z M1.1,267.9
						c-0.4-1.3-4.2-1.9-5.4-0.4c-0.4,0.5-0.2,0.8-0.7,2.9c-0.2,0.7-0.3,1.2-0.4,1.6c-0.2,0.7-0.3,1-0.1,1.2c0.5,0.5,2.1-0.4,2.9-0.9
						c1.5-0.8,2.3-1.8,2.7-2.2l0,0C0.8,269,1.3,268.4,1.1,267.9z M24.5,277.6c-0.1-0.6,0.8-1,2.5-1.7c1.6-0.7,3.8-1.7,6.6-3.4
						c1.9-1.2,3.4-2.3,4.7-3.2c2.3-1.7,3.8-2.7,4.8-2.1c0.7,0.4,1,1.5,0.7,2.2c-0.4,0.9-1.8,0.4-3.4,1.6c-1.1,0.8-0.8,1.4-1.9,2.2
						c-1.4,1.1-2.4,0.4-4,1.2c-2.2,1-1.8,2.9-3.7,4C28.5,279.7,24.7,278.7,24.5,277.6z					">
<animateTransform  accumulate="none" additive="replace" attributeName="transform" begin="0s" calcMode="linear" dur="2s" fill="remove" from="550 0" repeatCount="indefinite" restart="always" to="0 00" type="translate">
							</animateTransform>
					</path>
				</g>
				<use xlink:href="#SVGID_1_"  style="overflow:visible;fill:none;stroke:#666666;stroke-width:2;stroke-miterlimit:10;"/>
			</g>
		</g>
	</g>
</g>
</svg>
